<?xml version="1.0" encoding="UTF-8"?>
<!-- Created with Inkscape (http://www.inkscape.org/) -->
<svg width="256" height="256" version="1.1" viewBox="0 0 67.733 67.733" xmlns="http://www.w3.org/2000/svg">
 <g>
  <rect x="1.7802e-6" y="1.7802e-6" width="67.733" height="67.733" fill="#006156" stroke-dasharray="0.740983, 0.740983" stroke-width=".37049"/>
  <path d="m56.167 19.983c-1.8416-0.76434-3.9886-0.38354-5.4198 0.9522l-16.88 11.318-16.88-11.327c-1.4407-1.3262-3.5972-1.707-5.4293-0.94267-1.879 0.80147-3.0906 2.6431-3.0906 4.6852v18.387c0 2.0419 1.2116 3.8845 3.1001 4.6852 0.62978 0.26624 1.2969 0.40058 1.9762 0.40058 1.143 0 2.2596-0.37108 3.4341-1.1449l16.899-11.528 16.871 11.328c0.93509 0.86914 2.1565 1.3452 3.4436 1.3452 0.67935 0 1.3465-0.1439 1.9857-0.41013 1.879-0.79122 3.0906-2.6338 3.0906-4.6757v-18.387c0-2.0422-1.2116-3.8838-3.1001-4.6852zm-40.677 24.799c-0.71573 0.47633-1.3169 0.68718-1.9467 0.68718-0.32538 0-0.64023-0.06717-0.9456-0.19077-0.88648-0.37129-1.4706-1.2509-1.4706-2.2234v-18.387c0-0.97442 0.58407-1.8419 1.4706-2.2254 0.30536-0.12214 0.62022-0.19077 0.9456-0.19077 0.62978 0 1.2309 0.23938 1.6784 0.67935 0.05817 0.05608 0.12408 0.10504 0.1898 0.15172l16.079 10.783zm41.117-1.727c0 0.97247-0.58408 1.8416-1.4706 2.2234-0.88648 0.37108-1.9369 0.18031-2.624-0.48686-0.05817-0.05817-0.12408-0.10484-0.1898-0.15345l-16.061-10.783 16.061-10.772c0.06579-0.04639 0.1317-0.09528 0.1898-0.15171 0.68718-0.66883 1.7471-0.85009 2.6145-0.48859 0.89601 0.37399 1.4801 1.251 1.4801 2.2254z" fill="#fff"/>
 </g>
</svg>
